<svg id="Capa_1" data-name="Capa 1" xmlns="http://www.w3.org/2000/svg" viewBox="0 0 175.5 56.25"><defs><style>.cls-1{fill:#fff;}</style></defs><path class="cls-1" d="M1037.25,530.5c1.5,0,2.25,1,2.25,2.5,0,1.75-.75,2.5-2.25,2.5l-21.25.25c-1.75,0-2.75-.75-2.75-2.5s1-2.5,2.75-2.5Z" transform="translate(-871 -512)"/><path class="cls-1" d="M871,523.75C871,516,876.5,512,887.75,512h7.5c10.5,0,16,3.75,16,11.5v28c0,1.5-.75,2.5-2.75,2.5s-3-.75-3-2.5V524c0-4.75-3.25-7-9.5-7h-9.25c-6.75,0-10.25,2.5-10.25,7l.25,27.5c0,1.75-1,2.75-3,2.75A2.5,2.5,0,0,1,871,551.5Z" transform="translate(-871 -512)"/><path class="cls-1" d="M1006.25,523.75C1006,516,1011.75,512,1023,512h7.25c10.75,0,16,3.75,16.25,11.5v28a2.44,2.44,0,0,1-2.75,2.5c-2,0-3-.75-3-2.5V524c-.25-4.75-3.25-7-9.5-7H1022c-6.75,0-10.25,2.5-10.25,7l.25,27.5c0,1.75-1,2.75-3,2.75a2.5,2.5,0,0,1-2.75-2.75Z" transform="translate(-871 -512)"/><path class="cls-1" d="M926.75,543.5c0,3.75,2.75,5.5,8,5.5l21-.25c1.5,0,2.25.75,2.25,2.5s-.75,2.5-2,2.5l-21.5.25c-9,0-13.5-3.5-13.5-10V522.5c0-7,4.5-10.5,13.75-10.5h5.75c1.5,0,2.25.75,2.25,2.5S942,517,940.5,517h-3.75c-6.75,0-10,2-10,5.5Z" transform="translate(-871 -512)"/><path class="cls-1" d="M955.75,530.5c1.5,0,2,1,2,2.5,0,1.75-.5,2.5-2,2.5l-24.25.25c-1.75,0-2.75-.75-2.75-2.5s1-2.5,2.75-2.5Z" transform="translate(-871 -512)"/><path class="cls-1" d="M988.25,528.5a2.46,2.46,0,0,1-2,.75,2.7,2.7,0,0,1-1.75-.75,2.27,2.27,0,0,1-.75-1.75,1.89,1.89,0,0,1,.25-1c0-.25.25-.5.5-1L995.25,513a2.46,2.46,0,0,1,3.75-.25,2.7,2.7,0,0,1,.75,1.75,3.05,3.05,0,0,1-1,2.25Z" transform="translate(-871 -512)"/><path class="cls-1" d="M1000.5,549.5a2.7,2.7,0,0,1,.75,1.75,1.89,1.89,0,0,1-1,1.75,4,4,0,0,1-1.75,1,2.27,2.27,0,0,1-1.75-.75l-15-16.25-15,16.5a2.11,2.11,0,0,1-1.5.5,3.32,3.32,0,0,1-2-.75,2.84,2.84,0,0,1-.75-2,.92.92,0,0,1,.25-.75c0-.25.25-.5.5-.75l15-16.5L963,516.75a2.27,2.27,0,0,1-.75-1.75,2.7,2.7,0,0,1,.75-1.75,2.46,2.46,0,0,1,3.75-.25Z" transform="translate(-871 -512)"/><path class="cls-1" d="M1010,556.5h4.75a3.71,3.71,0,0,1,1.75.25,5.46,5.46,0,0,1,1.25.75,2.27,2.27,0,0,1,.75,1.75h0a2.25,2.25,0,0,1-.25,1.25c0,.25-.25.5-.25.75-.25.25-.5.25-.75.5-.25,0-.5.25-.75.25.5.25.75.25,1,.5a1.9,1.9,0,0,1,1,.5c0,.25.25.5.5.75,0,.25.25.75.25,1V565a4.22,4.22,0,0,1-.5,1.25,1.34,1.34,0,0,1-.75,1,1.91,1.91,0,0,1-1.25.5,3.71,3.71,0,0,1-1.75.25h-5Zm4.75,5.25h1c.5-.25.75-.25,1-.5l.75-.75c0-.25.25-.75.25-1v-.25a2.16,2.16,0,0,0-.75-1.5,5,5,0,0,0-2.25-.5h-4v4.5Zm.25,5.5a4.22,4.22,0,0,0,2.5-.75,1.78,1.78,0,0,0,.75-1.5v-.25a1.78,1.78,0,0,0-.75-1.5,4.49,4.49,0,0,0-2.75-.75h-4v4.75Z" transform="translate(-871 -512)"/><path class="cls-1" d="M1022,556.5h4.25a4.25,4.25,0,0,1,1.75.25,1.37,1.37,0,0,1,1.25.75,2,2,0,0,1,1,1c0,.5.25,1,.25,1.5h0a3.61,3.61,0,0,1-.5,1.75c-.25.25-.5.75-1,1a5.46,5.46,0,0,1-1.25.75,4.25,4.25,0,0,1-1.75.25h-3.25V568H1022Zm4,6.5c.5,0,1-.25,1.5-.25.5-.25.75-.25,1-.5a1.34,1.34,0,0,0,.75-1,1.87,1.87,0,0,0,.25-1.25h0a2.25,2.25,0,0,0-.25-1.25c0-.25-.25-.5-.5-.75-.5-.25-.75-.5-1.25-.5a3.17,3.17,0,0,0-1.5-.25h-3.25V563Z" transform="translate(-871 -512)"/><path class="cls-1" d="M1038.25,568.25a7.3,7.3,0,0,1-2.25-.5,5.44,5.44,0,0,1-2-1.25,5,5,0,0,1-1-2,7.3,7.3,0,0,1-.5-2.25h0a7.3,7.3,0,0,1,.5-2.25,5,5,0,0,1,1-2,8.77,8.77,0,0,1,2-1.25,7.3,7.3,0,0,1,2.25-.5,7.4,7.4,0,0,1,2.5.5,4.48,4.48,0,0,1,1.75,1.25,5.44,5.44,0,0,1,1.25,2,7.3,7.3,0,0,1,.5,2.25h0a7.3,7.3,0,0,1-.5,2.25,5.44,5.44,0,0,1-1.25,2,4.48,4.48,0,0,1-1.75,1.25,7.4,7.4,0,0,1-2.5.5Zm0-.75a4.71,4.71,0,0,0,2-.5,4,4,0,0,0,1.75-1,10.87,10.87,0,0,0,1-1.75,4.87,4.87,0,0,0,.25-2h0a4.87,4.87,0,0,0-.25-2,10.87,10.87,0,0,0-1-1.75,4,4,0,0,0-1.75-1,4.71,4.71,0,0,0-2-.5,5.88,5.88,0,0,0-2,.5,5.23,5.23,0,0,0-1.5,1,4,4,0,0,0-1,1.75,4.87,4.87,0,0,0-.25,2h0a4.87,4.87,0,0,0,.25,2,3.83,3.83,0,0,0,2.75,2.75,4.63,4.63,0,0,0,1.75.5Z" transform="translate(-871 -512)"/></svg>